<svg width="252" height="136" viewBox="0 0 252 136" fill="none" xmlns="http://www.w3.org/2000/svg">
<g clip-path="url(#clip0)">
<path d="M137.251 53.8348C136.843 54.4227 137.094 54.9173 137.809 54.9266L141.813 55.0013C142.183 54.9913 142.541 54.8705 142.842 54.6543C143.144 54.4382 143.374 54.1366 143.503 53.7882L148.296 38.6242C148.519 37.943 148.361 37.859 147.953 38.4562L137.251 53.8348Z" fill="#0C0B0B"/>
<path d="M79.452 54.7397C78.9504 55.2622 79.1269 55.6728 79.8422 55.6728L88.0911 55.3556C88.4878 55.3118 88.8695 55.1783 89.2074 54.9649C89.5453 54.7516 89.8306 54.464 90.0419 54.1238L104.459 29.4881C104.812 28.8536 104.71 28.7882 104.199 29.3015L79.452 54.7397Z" fill="#0C0B0B"/>
<path d="M101.849 14.9307C102.132 14.6926 102.48 14.5479 102.848 14.5161C103.215 14.4844 103.583 14.5673 103.902 14.7534L108.742 17.8701C109.062 18.0487 109.428 18.128 109.794 18.0981C110.159 18.0682 110.507 17.9305 110.795 17.7022L124.227 5.51499C124.757 5.03908 124.905 5.16039 124.562 5.78561L98.3286 53.8998C97.9849 54.5437 98.3286 55.0289 99.0067 55.0196C99.0067 55.0196 112.885 54.7863 120.837 54.7863H121.849C122.664 54.7454 123.438 54.4146 124.032 53.8531L155.774 20.0164C156.266 19.4939 156.536 19.6432 156.415 20.3337L148.983 53.9278C148.906 54.1975 148.937 54.4873 149.071 54.7337C149.205 54.9802 149.431 55.1635 149.699 55.2436C149.797 55.2572 149.897 55.2572 149.996 55.2436L206.057 59.3215C206.772 59.3962 206.93 59.0509 206.41 58.5563L159.889 14.0535C159.626 13.818 159.288 13.6841 158.936 13.6756C158.584 13.667 158.24 13.7844 157.966 14.0068L153.563 17.7395C153.268 17.963 152.913 18.093 152.544 18.113C152.175 18.1329 151.809 18.0419 151.492 17.8515L125.834 0.279915C125.519 0.0835064 125.152 -0.0134641 124.781 0.00150508C124.41 0.0164743 124.052 0.142697 123.754 0.3639L110.07 11.282C109.766 11.4998 109.406 11.626 109.032 11.6459C108.659 11.6657 108.287 11.5783 107.962 11.394L105.045 9.52762C104.72 9.34103 104.349 9.25397 103.976 9.27719C103.603 9.30041 103.244 9.43288 102.945 9.65826L45.6301 57.2872C45.082 57.7444 45.2121 58.0617 45.9181 57.9871L54.7151 57.1752C55.5438 57.0606 56.325 56.7183 56.9724 56.1861L101.849 14.9307Z" fill="#0C0B0B"/>
<path d="M69.6951 115.778C64.1215 119.716 56.5228 121.918 48.2089 121.918C45.5621 121.86 42.9298 121.51 40.3594 120.873C40.0807 117.075 39.8763 104.683 39.8763 101.417V98.6172C39.8763 95.6964 40.1178 82.0348 40.3501 78.4794C41.9407 78.2864 43.5412 78.1867 45.1434 78.1808C57.4611 78.1808 66.0723 79.9818 71.4973 83.6958C77.7397 87.9697 78.5758 93.886 78.5758 99.1118C78.5758 105.84 75.501 111.588 69.6951 115.75V115.778ZM34.5721 73.7202C32.2869 73.7202 25.6172 73.5989 24.4096 73.4496L24.3445 75.4839C26.2024 75.6146 27.7073 76.4171 29.7602 76.837C29.9832 79.9258 30.1597 90.7039 30.1597 95.1085V100.707C30.1597 111.756 29.946 121.9 29.6395 122.88L29.11 125.045L28.9149 125.978L28.6548 126.995L29.6859 126.92L30.7263 126.836H31.1443L44.6418 126.78C77.1545 126.78 88.6547 109.685 88.6547 95.0525C88.6547 87.1952 83.6106 80.523 74.8136 76.7717C69.9645 74.7001 61.3905 73.4496 51.7946 73.4496C48.8498 73.4496 44.6139 73.5523 40.8331 73.6083C38.1021 73.6642 35.7147 73.7296 34.5907 73.7296" fill="#0C0B0B"/>
<path d="M241.645 101.613C241.644 98.6026 241.048 95.6225 239.89 92.8462C238.732 90.0698 237.036 87.5525 234.901 85.4409C232.526 83.0923 229.714 81.2378 226.625 79.984C223.535 78.7301 220.23 78.1015 216.898 78.1342C206.54 78.1342 194.464 83.36 194.464 98.1134C194.603 104.238 197.144 110.06 201.533 114.313C203.989 116.792 206.912 118.755 210.13 120.09C213.348 121.424 216.798 122.103 220.279 122.086C227.079 122.086 232.43 120.164 236.164 116.431C239.703 112.913 241.645 107.594 241.645 101.622V101.613ZM192.959 119.539C187.441 114.257 185.091 108.77 185.091 101.193C185.131 97.7037 185.86 94.2572 187.236 91.0534C188.612 87.8496 190.608 84.9522 193.108 82.5295C199.508 76.0999 208.612 72.5352 218.691 72.5352C225.881 72.5352 233.637 73.2631 241.449 78.5728C244.59 80.6442 247.179 83.454 248.994 86.7583C250.809 90.0626 251.793 93.7617 251.863 97.5348C251.863 115.06 237.399 127.779 217.492 127.779C206.8 127.779 198.765 125.073 192.95 119.511" fill="#0C0B0B"/>
<path d="M17.0676 76.4448C19.9008 76.1649 20.9041 75.6703 22.4925 75.5117L22.5669 73.4774C21.2199 73.6267 15.3397 73.776 11.3082 73.776C8.11263 73.776 1.62867 73.6267 0.16095 73.4774L0.597549 75.5023C2.11171 75.6423 4.00674 76.1369 5.59522 76.4355C5.81816 80.2895 5.90177 92.8873 5.90177 95.5655V107.435C5.90177 114.499 4.85207 131.8 4.54552 134.675L4.44334 135.533L17.1233 131.8L17.4113 131.53L17.3277 131.091L17.2348 130.671C17.0769 129.925 16.8725 123.533 16.8725 108.014V95.9387C16.8725 84.4234 16.9932 78.0685 17.1047 76.4262" fill="#0C0B0B"/>
<path d="M181.529 76.5195C183.805 76.2302 184.892 75.5863 186.471 75.409L186.954 73.4774C185.523 73.6267 180.748 73.7386 176.801 73.7386C173.735 73.7386 166.963 73.6267 165.607 73.4774L165.997 75.409C167.555 75.5624 169.089 75.9007 170.567 76.4168C170.855 79.375 170.948 89.3972 170.948 93.9231V96.7879C164.009 96.7226 144.325 96.7879 138.519 96.7879V93.9231C138.519 88.52 138.742 79.375 138.993 76.4168C140.439 75.899 141.943 75.5605 143.47 75.409L143.879 73.4774C142.606 73.6267 137.757 73.7386 133.819 73.7386C130.809 73.7386 125.17 73.6267 123.833 73.4774L124.232 75.409C125.939 75.5773 127.626 75.9149 129.267 76.4168C129.49 80.1495 129.592 92.7473 129.592 95.4815V107.258C129.592 114.817 129.796 124.466 129.536 127.293V127.517L139.179 124.634V124.382L139.132 123.999C138.807 121.377 138.547 110.991 138.547 103.899V100.539C141.102 100.539 166.87 99.4474 171.013 99.4848V103.927C171.013 111.392 171.013 120.724 170.577 123.038L170.4 123.915L170.224 124.848H182.374L182.17 123.915L181.956 122.982C181.501 120.938 181.315 110.198 181.315 100.502V95.5188C181.315 92.262 181.38 79.8882 181.631 76.5381" fill="#0C0B0B"/>
<path d="M96.2312 96.8817C98.089 91.7493 100.876 84.6759 101.991 82.343L107.341 96.8817H96.2312ZM119.956 130.345L129.682 127.424L129.106 126.491C129.106 126.435 127.248 122.954 125.102 117.729C124.174 115.47 122.548 111.103 120.941 106.885C119.027 101.79 117.225 97.0124 116.751 96.1165C116.157 94.9034 105.307 65.6579 105.195 65.378L105.028 64.9207L104.852 65.3593C104.582 65.9939 103.31 69.3253 101.387 74.3457C94.5312 92.2159 80.5879 128.544 76.9372 136.019L84.6566 132.146C86.1244 126.034 91.1035 111.85 93.2586 105.7C93.8624 104.011 94.2618 102.901 94.364 102.537C94.4197 102.369 94.4941 102.173 94.587 101.893C94.6798 101.613 95.0236 100.446 95.135 100.111L108.363 99.4106C108.92 100.754 114.355 114.584 113.175 111.243L119.956 130.345Z" fill="#0C0B0B"/>
</g>
<defs>
<clipPath id="clip0">
<rect width="252" height="136" fill="white"/>
</clipPath>
</defs>
</svg>
